<mxfile host="app.diagrams.net" modified="2022-11-23T19:57:31.417Z" agent="5.0 (Windows NT 10.0; Win64; x64) AppleWebKit/537.36 (KHTML, like Gecko) Chrome/107.0.0.0 Safari/537.36 Edg/107.0.1418.56" version="20.6.0" etag="chkzFCpEoNp2ZTmkiZOb" type="github">
  <diagram id="187KEBw4NeA99IiVEE2p" name="Page-1">
    <mxGraphModel dx="1038" dy="570" grid="1" gridSize="10" guides="1" tooltips="1" connect="1" arrows="1" fold="1" page="1" pageScale="1" pageWidth="850" pageHeight="1100" math="0" shadow="0">
      <root>
        <mxCell id="0" />
        <mxCell id="1" parent="0" />
        <mxCell id="MzLQ676I6uMULinBYRLk-6" style="edgeStyle=orthogonalEdgeStyle;rounded=0;orthogonalLoop=1;jettySize=auto;html=1;entryX=0;entryY=0.5;entryDx=0;entryDy=0;" edge="1" parent="1" source="MzLQ676I6uMULinBYRLk-2" target="MzLQ676I6uMULinBYRLk-5">
          <mxGeometry relative="1" as="geometry" />
        </mxCell>
        <mxCell id="MzLQ676I6uMULinBYRLk-2" value="Git Hub Main branch" style="rounded=0;whiteSpace=wrap;html=1;" vertex="1" parent="1">
          <mxGeometry x="80" y="50" width="120" height="60" as="geometry" />
        </mxCell>
        <mxCell id="MzLQ676I6uMULinBYRLk-7" style="edgeStyle=orthogonalEdgeStyle;rounded=0;orthogonalLoop=1;jettySize=auto;html=1;" edge="1" parent="1" source="MzLQ676I6uMULinBYRLk-5">
          <mxGeometry relative="1" as="geometry">
            <mxPoint x="460" y="80" as="targetPoint" />
          </mxGeometry>
        </mxCell>
        <mxCell id="MzLQ676I6uMULinBYRLk-5" value="Commit/Pull request" style="rounded=0;whiteSpace=wrap;html=1;" vertex="1" parent="1">
          <mxGeometry x="270" y="50" width="120" height="60" as="geometry" />
        </mxCell>
        <mxCell id="MzLQ676I6uMULinBYRLk-8" style="edgeStyle=orthogonalEdgeStyle;rounded=0;orthogonalLoop=1;jettySize=auto;html=1;entryX=0;entryY=0.5;entryDx=0;entryDy=0;" edge="1" parent="1" source="MzLQ676I6uMULinBYRLk-9" target="MzLQ676I6uMULinBYRLk-12">
          <mxGeometry relative="1" as="geometry" />
        </mxCell>
        <mxCell id="MzLQ676I6uMULinBYRLk-9" value="Git Hub Dev branch" style="rounded=0;whiteSpace=wrap;html=1;" vertex="1" parent="1">
          <mxGeometry x="80" y="180" width="120" height="60" as="geometry" />
        </mxCell>
        <mxCell id="MzLQ676I6uMULinBYRLk-10" value="Deploy to Azure Static Web App Development" style="rounded=0;whiteSpace=wrap;html=1;" vertex="1" parent="1">
          <mxGeometry x="460" y="180" width="120" height="60" as="geometry" />
        </mxCell>
        <mxCell id="MzLQ676I6uMULinBYRLk-11" style="edgeStyle=orthogonalEdgeStyle;rounded=0;orthogonalLoop=1;jettySize=auto;html=1;" edge="1" parent="1" source="MzLQ676I6uMULinBYRLk-12" target="MzLQ676I6uMULinBYRLk-10">
          <mxGeometry relative="1" as="geometry" />
        </mxCell>
        <mxCell id="MzLQ676I6uMULinBYRLk-12" value="Commit/Pull request" style="rounded=0;whiteSpace=wrap;html=1;" vertex="1" parent="1">
          <mxGeometry x="270" y="180" width="120" height="60" as="geometry" />
        </mxCell>
        <mxCell id="MzLQ676I6uMULinBYRLk-18" value="Release" style="text;html=1;strokeColor=none;fillColor=none;align=center;verticalAlign=middle;whiteSpace=wrap;rounded=0;" vertex="1" parent="1">
          <mxGeometry x="80" y="20" width="60" height="30" as="geometry" />
        </mxCell>
        <mxCell id="MzLQ676I6uMULinBYRLk-20" value="Development" style="text;html=1;strokeColor=none;fillColor=none;align=center;verticalAlign=middle;whiteSpace=wrap;rounded=0;" vertex="1" parent="1">
          <mxGeometry x="80" y="150" width="70" height="30" as="geometry" />
        </mxCell>
        <mxCell id="MzLQ676I6uMULinBYRLk-27" value="Deploy to Azure Static Web App Production&amp;nbsp;" style="rounded=0;whiteSpace=wrap;html=1;" vertex="1" parent="1">
          <mxGeometry x="460" y="50" width="120" height="60" as="geometry" />
        </mxCell>
        <mxCell id="MzLQ676I6uMULinBYRLk-32" value="build action" style="text;html=1;strokeColor=none;fillColor=none;align=center;verticalAlign=middle;whiteSpace=wrap;rounded=0;" vertex="1" parent="1">
          <mxGeometry x="395" y="50" width="60" height="30" as="geometry" />
        </mxCell>
        <mxCell id="MzLQ676I6uMULinBYRLk-33" value="build action" style="text;html=1;strokeColor=none;fillColor=none;align=center;verticalAlign=middle;whiteSpace=wrap;rounded=0;" vertex="1" parent="1">
          <mxGeometry x="395" y="180" width="60" height="30" as="geometry" />
        </mxCell>
        <mxCell id="MzLQ676I6uMULinBYRLk-41" style="edgeStyle=orthogonalEdgeStyle;rounded=0;orthogonalLoop=1;jettySize=auto;html=1;entryX=0.5;entryY=0;entryDx=0;entryDy=0;" edge="1" parent="1" source="MzLQ676I6uMULinBYRLk-38" target="MzLQ676I6uMULinBYRLk-39">
          <mxGeometry relative="1" as="geometry" />
        </mxCell>
        <mxCell id="MzLQ676I6uMULinBYRLk-38" value="Github Commit" style="rounded=0;whiteSpace=wrap;html=1;" vertex="1" parent="1">
          <mxGeometry x="275" y="305" width="120" height="60" as="geometry" />
        </mxCell>
        <mxCell id="MzLQ676I6uMULinBYRLk-44" value="" style="edgeStyle=orthogonalEdgeStyle;rounded=0;orthogonalLoop=1;jettySize=auto;html=1;" edge="1" parent="1" source="MzLQ676I6uMULinBYRLk-39" target="MzLQ676I6uMULinBYRLk-43">
          <mxGeometry relative="1" as="geometry" />
        </mxCell>
        <mxCell id="MzLQ676I6uMULinBYRLk-39" value="NPM install&amp;nbsp;" style="rounded=0;whiteSpace=wrap;html=1;" vertex="1" parent="1">
          <mxGeometry x="275" y="410" width="120" height="60" as="geometry" />
        </mxCell>
        <mxCell id="MzLQ676I6uMULinBYRLk-42" value="&lt;h1&gt;Prerequistes&lt;/h1&gt;&lt;div&gt;GitHub&lt;/div&gt;&lt;div&gt;Azure StaticWebApp&lt;/div&gt;&lt;div&gt;Visual Studio Code&lt;/div&gt;&lt;div&gt;NPM&lt;/div&gt;&lt;div&gt;NextJS&lt;/div&gt;" style="text;html=1;strokeColor=none;fillColor=none;spacing=5;spacingTop=-20;whiteSpace=wrap;overflow=hidden;rounded=0;" vertex="1" parent="1">
          <mxGeometry x="550" y="310" width="190" height="160" as="geometry" />
        </mxCell>
        <mxCell id="MzLQ676I6uMULinBYRLk-46" style="edgeStyle=orthogonalEdgeStyle;rounded=0;orthogonalLoop=1;jettySize=auto;html=1;entryX=0.5;entryY=0;entryDx=0;entryDy=0;" edge="1" parent="1" source="MzLQ676I6uMULinBYRLk-43" target="MzLQ676I6uMULinBYRLk-45">
          <mxGeometry relative="1" as="geometry" />
        </mxCell>
        <mxCell id="MzLQ676I6uMULinBYRLk-43" value="NPM build/produce artifact" style="rounded=0;whiteSpace=wrap;html=1;" vertex="1" parent="1">
          <mxGeometry x="275" y="510" width="120" height="60" as="geometry" />
        </mxCell>
        <mxCell id="MzLQ676I6uMULinBYRLk-45" value="Deploy to Azure Static web app" style="rounded=0;whiteSpace=wrap;html=1;" vertex="1" parent="1">
          <mxGeometry x="275" y="610" width="120" height="60" as="geometry" />
        </mxCell>
      </root>
    </mxGraphModel>
  </diagram>
</mxfile>
